Coordinates
version=1
nRows=26
nColumns=24
inDegrees=yes

Units are S.I. units (second, meters, Newtons, ...)
Angles are in degrees.

endheader
time	pelvis_tilt	pelvis_list	pelvis_rotation	pelvis_tx	pelvis_ty	pelvis_tz	hip_flexion_r	hip_adduction_r	hip_rotation_r	knee_angle_r	ankle_angle_r	subtalar_angle_r	mtp_angle_r	hip_flexion_l	hip_adduction_l	hip_rotation_l	knee_angle_l	ankle_angle_l	subtalar_angle_l	mtp_angle_l	lumbar_extension	lumbar_bending	lumbar_rotation
      6.17000000	     -0.79226283	     11.59174962	    -12.53203856	      1.71966606	      0.66127473	     -0.21624532	      7.10069010	     -7.06781726	      9.61540194	    -63.85559036	    -25.16206461	    -34.30564054	      0.00000000	     17.69763815	     11.80945079	     -6.27102670	    -21.10544988	     13.33491998	     -6.71159246	      0.00000000	    -14.41641689	    -11.92738736	      4.91047413
      6.18000000	     -1.02779880	     11.33553741	    -11.85539248	      1.73038574	      0.66268877	     -0.21664797	      9.79710413	     -6.32080387	      9.25208111	    -66.24654856	    -22.42422474	    -34.24042714	      0.00000000	     16.50352577	     11.89448522	     -5.76772093	    -20.55871828	     14.14899306	     -5.93141070	      0.00000000	    -14.47269149	    -11.46971134	      4.25390445
      6.19000000	     -1.10810598	     10.97313564	    -11.13556544	      1.74108165	      0.66422323	     -0.21705160	     12.24367806	     -5.59039801	      8.77521621	    -68.09098618	    -19.24539183	    -33.60807658	      0.00000000	     15.05792950	     11.97205579	     -4.77735389	    -19.87777586	     14.68027306	     -5.78647113	      0.00000000	    -14.71470438	    -10.93010997	      3.56770259
      6.20000000	     -1.19418256	     10.55085776	    -10.42655080	      1.75168741	      0.66564267	     -0.21738825	     14.66905969	     -4.87580467	      8.27845521	    -69.48238458	    -15.87079241	    -32.44574924	      0.00000000	     13.62151687	     11.96779970	     -3.64401622	    -19.20394622	     15.13669478	     -5.86726582	      0.00000000	    -14.93200191	    -10.35157281	      2.98300560
      6.21000000	     -1.25125760	     10.08476374	     -9.71648870	      1.76220499	      0.66693434	     -0.21767856	     17.02598808	     -4.21901362	      7.73917756	    -70.43242449	    -12.59769141	    -30.93711761	      0.00000000	     12.17989331	     11.88768398	     -2.45229077	    -18.57216558	     15.57009336	     -6.03039109	      0.00000000	    -15.17394948	     -9.74931538	      2.44849285
      6.22000000	     -1.27782109	      9.62225965	     -8.99644071	      1.77264696	      0.66804384	     -0.21793329	     19.30896628	     -3.68073468	      7.16166812	    -70.96324163	     -9.65091995	    -29.33031090	      0.00000000	     10.74695307	     11.76748930	     -1.27406034	    -17.99633486	     16.03496969	     -6.15947790	      0.00000000	    -15.44383796	     -9.17542447	      1.92048553
      6.23000000	     -1.26180070	      9.18857020	     -8.24303951	      1.78302650	      0.66895469	     -0.21817189	     21.48114467	     -3.30305472	      6.53116573	    -71.06633345	     -7.15947364	    -27.88163909	      0.00000000	      9.31481174	     11.62880152	     -0.15255298	    -17.48198060	     16.55167664	     -6.17549044	      0.00000000	    -15.76546858	     -8.65222729	      1.33724414
      6.24000000	     -1.20396390	      8.79135565	     -7.43183370	      1.79334229	      0.66964851	     -0.21840933	     23.51596488	     -3.09956176	      5.83720895	    -70.72978365	     -5.14156062	    -26.79526593	      0.00000000	      7.88923986	     11.47507064	      0.89128927	    -17.04113500	     17.12093026	     -6.04031553	      0.00000000	    -16.15406930	     -8.17765974	      0.64345164
      6.25000000	     -1.12779949	      8.43017615	     -6.53277338	      1.80359198	      0.67012349	     -0.21865875	     25.40250710	     -3.07097046	      5.06890632	    -69.92068578	     -3.62688702	    -26.22697742	      0.00000000	      6.48764909	     11.30304626	      1.88175950	    -16.66254582	     17.69104122	     -5.74093254	      0.00000000	    -16.59526877	     -7.74038354	     -0.18821558
      6.26000000	     -1.04135100	      8.15301198	     -5.58637012	      1.81376181	      0.67033903	     -0.21889061	     27.15005141	     -3.24385606	      4.29290496	    -68.65434521	     -2.44173179	    -26.12126265	      0.00000000	      5.12345991	     11.16598812	      2.82922110	    -16.34061186	     18.35229559	     -5.38759495	      0.00000000	    -17.08053723	     -7.39768076	     -1.15512693
      6.27000000	     -1.02122354	      7.96869459	     -4.58471967	      1.82384623	      0.67025583	     -0.21911045	     28.81093106	     -3.60542463	      3.53653507	    -66.90677679	     -1.66323804	    -26.51970939	      0.00000000	      3.87692338	     11.07079013	      3.75028907	    -16.07275239	     19.03788134	     -5.00372277	      0.00000000	    -17.52223099	     -7.14950995	     -2.25852983
      6.28000000	     -0.98150925	      7.78867961	     -3.54541700	      1.83388692	      0.67001685	     -0.21930020	     30.24002888	     -4.07912608	      2.74885200	    -64.64106528	     -0.96934932	    -27.06704071	      0.00000000	      2.63314278	     10.93133766	      4.64798580	    -15.83846723	     19.68054575	     -4.60236273	      0.00000000	    -18.03295601	     -6.89065056	     -3.41138838
      6.29000000	     -0.86091055	      7.58521209	     -2.51314861	      1.84392096	      0.66972804	     -0.21945300	     31.31352833	     -4.59344381	      1.99994929	    -61.78181601	     -0.57950341	    -27.90136598	      0.00000000	      1.32038466	     10.72547453	      5.51778978	    -15.62758851	     20.29465039	     -4.21683491	      0.00000000	    -18.66203114	     -6.58192494	     -4.55522722
      6.30000000	     -0.86297584	      7.44832042	     -1.48499970	      1.85393123	      0.66919201	     -0.21956340	     32.26515158	     -5.19497069	      1.35738348	    -58.37130313	     -0.56965477	    -28.91766441	      0.00000000	      0.16774125	     10.54438298	      6.36206207	    -15.44712762	     20.86801499	     -3.88755969	      0.00000000	    -19.16852939	     -6.33241983	     -5.70248428
      6.31000000	     -0.92176084	      7.36762498	     -0.49961561	      1.86398281	      0.66849263	     -0.21961835	     32.98228982	     -5.84705769	      0.86448621	    -54.37231637	     -0.92703103	    -30.02034263	      0.00000000	     -0.90498907	     10.38523502	      7.11983080	    -15.28543445	     21.38420427	     -3.60215449	      0.00000000	    -19.61114894	     -6.13091288	     -6.79144333
      6.32000000	     -1.01518134	      7.33694430	      0.42632071	      1.87414788	      0.66766610	     -0.21959506	     33.40732926	     -6.52653605	      0.52297610	    -49.77238903	     -1.59120606	    -31.03784826	      0.00000000	     -1.94225524	     10.24394818	      7.78163289	    -15.11684285	     21.84163355	     -3.32041035	      0.00000000	    -20.00450122	     -5.98497845	     -7.77851286
      6.33000000	     -1.10371936	      7.36994645	      1.28875754	      1.88451316	      0.66673719	     -0.21950435	     33.47186164	     -7.23963947	      0.33361847	    -44.58298787	     -2.53984686	    -31.86658791	      0.00000000	     -3.00892716	     10.13669259	      8.34902281	    -14.91765452	     22.23159838	     -3.03531865	      0.00000000	    -20.37248078	     -5.89366933	     -8.66683558
      6.34000000	     -1.15154859	      7.49546179	      2.10138264	      1.89514257	      0.66570596	     -0.21935067	     33.13822238	     -8.02274101	      0.25877094	    -38.87498578	     -3.65373397	    -32.34775144	      0.00000000	     -4.15792025	     10.09110683	      8.86327984	    -14.68555940	     22.53578998	     -2.75622897	      0.00000000	    -20.75049264	     -5.88504421	     -9.48061442
      6.35000000	     -1.14255803	      7.75129459	      2.88768368	      1.90612397	      0.66453229	     -0.21915077	     32.43712436	     -8.93897548	      0.19501273	    -32.82638243	     -4.65990297	    -32.23322261	      0.00000000	     -5.43456044	     10.13887369	      9.38553632	    -14.39961479	     22.76151008	     -2.48559360	      0.00000000	    -21.13713052	     -5.98964498	    -10.26034790
      6.36000000	     -1.04160592	      8.14451751	      3.67143009	      1.91750522	      0.66321215	     -0.21890522	     31.41392645	    -10.00693929	      0.01363105	    -26.68359692	     -5.39609919	    -31.39333057	      0.00000000	     -6.87857939	     10.27343260	      9.97259236	    -14.08176250	     22.89521879	     -2.21942232	      0.00000000	    -21.57090119	     -6.20458687	    -11.04112143
      6.37000000	     -0.78326148	      8.60446030	      4.46050443	      1.92932504	      0.66181058	     -0.21860634	     30.10529935	    -11.14827769	     -0.47232377	    -20.76214796	     -5.58588577	    -29.59471127	      0.00000000	     -8.56130298	     10.40291337	     10.69070824	    -13.73745660	     22.96139291	     -1.98197285	      0.00000000	    -22.11282903	     -6.43576451	    -11.77771911
      6.38000000	     -0.45133780	      9.11156029	      5.26238250	      1.94149608	      0.66030305	     -0.21824811	     28.78079109	    -12.33004595	     -1.49306303	    -15.50775119	     -4.64342568	    -26.21940487	      0.00000000	    -10.33577493	     10.50979485	     11.52318494	    -13.45049295	     22.87301238	     -1.92023243	      0.00000000	    -22.68501691	     -6.66750101	    -12.54909695
      6.39000000	     -0.22202704	      9.51898378	      6.12147562	      1.95399506	      0.65862372	     -0.21781445	     27.68042802	    -13.35662592	     -2.92653503	    -11.18852740	     -3.10903666	    -22.08348458	      0.00000000	    -11.96342211	     10.44682009	     12.50787780	    -13.29920698	     22.86406305	     -1.66276150	      0.00000000	    -23.04350878	     -6.76724513	    -13.21838173
      6.40000000	      0.06808840	      9.72643563	      6.89697704	      1.96672718	      0.65700177	     -0.21715031	     26.67725226	    -14.02267415	     -4.34144220	     -7.93386773	     -1.62022757	    -18.04147047	      0.00000000	    -13.48178768	     10.11903285	     13.21362914	    -13.42168304	     22.86882686	     -1.29674336	      0.00000000	    -23.39340215	     -6.65613782	    -13.70758624
      6.41000000	      0.19475154	      9.73330508	      7.63957830	      1.97966227	      0.65535099	     -0.21634787	     26.00866280	    -14.37367074	     -5.35318864	     -5.80134889	     -0.23530386	    -14.78182905	      0.00000000	    -14.67239962	      9.58443815	     13.88298730	    -13.77678909	     22.82841611	     -0.77446682	      0.00000000	    -23.46092517	     -6.35259415	    -13.98036237
      6.42000000	      0.27396524	      9.54910867	      8.27637822	      1.99280459	      0.65380702	     -0.21533976	     25.51431713	    -14.40922480	     -5.66687287	     -4.68856360	      0.57264271	    -13.02315086	      0.00000000	    -15.59205983	      8.87430188	     14.29735312	    -14.45387598	     22.73747270	     -0.25602253	      0.00000000	    -23.36288698	     -5.89648605	    -14.14766842
